<?xml version="1.0" standalone="no"?>
<!DOCTYPE svg PUBLIC "-//W3C//DTD SVG 20010904//EN"
 "http://www.w3.org/TR/2001/REC-SVG-20010904/DTD/svg10.dtd">
<svg version="1.0" xmlns="http://www.w3.org/2000/svg"
 width="700.000000pt" height="700.000000pt" viewBox="0 0 700.000000 700.000000"
 preserveAspectRatio="xMidYMid meet">
<metadata>
Created by potrace 1.11, written by Peter Selinger 2001-2013
</metadata>
<g transform="translate(0.000000,700.000000) scale(0.100000,-0.100000)"
fill="#000000" stroke="none">
<path d="M3725 4978 c-3 -7 -4 -677 -3 -1488 l3 -1475 113 -3 112 -3 0 566 0
565 408 0 407 -1 515 -564 515 -565 148 0 c82 0 146 3 143 8 -2 4 -236 259
-520 567 l-515 560 117 12 c266 29 460 117 609 277 37 40 83 99 102 129 177
296 168 714 -20 1003 -159 243 -396 381 -709 414 -148 15 -1419 13 -1425 -2z
m1485 -222 c266 -57 455 -238 527 -506 25 -94 22 -298 -6 -403 -67 -255 -229
-407 -495 -470 -87 -20 -115 -21 -686 -22 l-595 0 -3 708 -2 707 597 0 c472 0
612 -3 663 -14z"/>
<path d="M910 4880 l0 -100 535 0 535 0 2 -1382 3 -1383 113 -3 112 -3 0 1386
0 1385 540 0 540 0 0 100 0 100 -1190 0 -1190 0 0 -100z"/>
</g>
</svg>
